<?xml version="1.0" encoding="UTF-8" standalone="no"?>
<!-- Created with Inkscape (http://www.inkscape.org/) -->

<svg
   xmlns:dc="http://purl.org/dc/elements/1.1/"
   xmlns:cc="http://creativecommons.org/ns#"
   xmlns:rdf="http://www.w3.org/1999/02/22-rdf-syntax-ns#"
   xmlns:svg="http://www.w3.org/2000/svg"
   xmlns="http://www.w3.org/2000/svg"
   xmlns:xlink="http://www.w3.org/1999/xlink"
   xmlns:sodipodi="http://sodipodi.sourceforge.net/DTD/sodipodi-0.dtd"
   xmlns:inkscape="http://www.inkscape.org/namespaces/inkscape"
   id="svg2"
   version="1.1"
   inkscape:version="0.91 r13725"
   xml:space="preserve"
   width="3096.25"
   height="1927.5"
   viewBox="0 0 3096.25 1927.5"
   sodipodi:docname="nwaslogo1.svg"><metadata
     id="metadata8"><rdf:RDF><cc:Work
         rdf:about=""><dc:format>image/svg+xml</dc:format><dc:type
           rdf:resource="http://purl.org/dc/dcmitype/StillImage" /><dc:title></dc:title></cc:Work></rdf:RDF></metadata><defs
     id="defs6"><linearGradient
       inkscape:collect="always"
       id="linearGradient3560"><stop
         style="stop-color:#507366;stop-opacity:1;"
         offset="0"
         id="stop3562" /><stop
         style="stop-color:#507366;stop-opacity:0;"
         offset="1"
         id="stop3564" /></linearGradient><linearGradient
       inkscape:collect="always"
       id="linearGradient3554"><stop
         style="stop-color:#fdfdfd;stop-opacity:1;"
         offset="0"
         id="stop3556" /><stop
         style="stop-color:#fdfdfd;stop-opacity:0;"
         offset="1"
         id="stop3558" /></linearGradient><linearGradient
       inkscape:collect="always"
       id="linearGradient3495"><stop
         style="stop-color:#fefefe;stop-opacity:1;"
         offset="0"
         id="stop3497" /><stop
         style="stop-color:#fefefe;stop-opacity:0;"
         offset="1"
         id="stop3499" /></linearGradient><linearGradient
       inkscape:collect="always"
       id="linearGradient3487"><stop
         style="stop-color:#fdfefd;stop-opacity:1;"
         offset="0"
         id="stop3489" /><stop
         style="stop-color:#fdfefd;stop-opacity:0;"
         offset="1"
         id="stop3491" /></linearGradient><clipPath
       clipPathUnits="userSpaceOnUse"
       id="clipPath16"><path
         d="m 0,1542 2477,0 L 2477,0 0,0 0,1542 Z"
         id="path18"
         inkscape:connector-curvature="0" /></clipPath><linearGradient
       inkscape:collect="always"
       xlink:href="#linearGradient3487"
       id="linearGradient3493"
       x1="-493.41647"
       y1="-702.83942"
       x2="62.831625"
       y2="-69.051292"
       gradientUnits="userSpaceOnUse" /><linearGradient
       inkscape:collect="always"
       xlink:href="#linearGradient3495"
       id="linearGradient3501"
       x1="-65.667631"
       y1="0.69003515"
       x2="134.65588"
       y2="0.69003515"
       gradientUnits="userSpaceOnUse" /><linearGradient
       inkscape:collect="always"
       xlink:href="#linearGradient3554"
       id="linearGradient3509"
       x1="-178.20984"
       y1="-94.703438"
       x2="-204.34543"
       y2="-107.77123"
       gradientUnits="userSpaceOnUse" /><linearGradient
       inkscape:collect="always"
       xlink:href="#linearGradient3560"
       id="linearGradient3566"
       x1="0"
       y1="25.200164"
       x2="257.88805"
       y2="25.200164"
       gradientUnits="userSpaceOnUse" /></defs><sodipodi:namedview
     pagecolor="#ffffff"
     bordercolor="#666666"
     borderopacity="1"
     objecttolerance="10"
     gridtolerance="10"
     guidetolerance="10"
     inkscape:pageopacity="0"
     inkscape:pageshadow="2"
     inkscape:window-width="1855"
     inkscape:window-height="1056"
     id="namedview4"
     showgrid="false"
     inkscape:zoom="0.12243839"
     inkscape:cx="1548.125"
     inkscape:cy="963.74999"
     inkscape:window-x="65"
     inkscape:window-y="24"
     inkscape:window-maximized="1"
     inkscape:current-layer="g14"
     inkscape:snap-grids="false" /><g
     id="g10"
     inkscape:groupmode="layer"
     inkscape:label="FINALLOGOS-Lionelized(1)"
     transform="matrix(1.25,0,0,-1.25,0,1927.5)"><g
       id="g12"
       transform="translate(45.737288,45.737288)"><g
         id="g14"
         clip-path="url(#clipPath16)"><g
           id="g20"
           transform="translate(2093.957,508.5439)"><path
             d="m 0,0 c -0.147,-6.936 0.085,-13.216 3.595,-18.849 2.142,-3.437 4.915,-5.963 9.259,-5.616 4.294,0.343 7.156,3.14 8.433,6.856 3.829,11.13 4.234,22.43 -0.032,33.572 -1.62,4.23 -4.425,7.654 -9.535,7.402 C 6.793,23.123 4.027,19.706 2.295,15.549 0.153,10.412 -0.311,4.946 0,0 m -87.025,-0.185 c -0.197,-6.17 0.068,-12.16 2.985,-17.639 2.061,-3.87 5.003,-6.812 9.755,-6.612 4.58,0.193 7.374,3.269 8.697,7.199 3.66,10.867 3.847,21.912 0.043,32.788 -1.478,4.226 -4.25,7.816 -9.335,7.785 -5.206,-0.031 -8.043,-3.622 -9.851,-7.968 -2.081,-4.994 -2.503,-10.315 -2.294,-15.553 m -1338.69,-89.359 c 159.996,0 319.992,0.004 479.988,-0.01 11.608,-0.001 23.088,-0.206 34.399,3.817 7.473,2.657 15.782,4.156 22.533,7.729 11.346,6.008 22.949,12.012 32.764,20.767 12.12,10.812 23.071,22.423 31.174,36.678 4.753,8.36 8.35,17.087 11.548,26.103 3.044,8.581 5.318,17.266 5.321,26.368 0.045,145.496 -0.013,290.993 0.092,436.489 0.011,16.557 0.333,33.057 -6.601,48.602 -3.21,7.198 -5.744,14.57 -9.865,21.549 -3.198,5.414 -6.399,11.503 -10.185,16.106 -6.844,8.323 -14.05,16.676 -23.042,23.198 -8.632,6.259 -17.242,12.223 -26.976,16.839 -8.75,4.15 -17.628,7.628 -26.847,10.367 -11.486,3.41 -23.233,4.466 -35.221,4.463 -323.159,-0.082 -646.318,-0.068 -969.477,-0.049 -9.989,10e-4 -19.447,-3.21 -28.946,-5.404 -8.806,-2.033 -17.048,-6.741 -25.338,-10.693 -5.015,-2.39 -10.043,-5.084 -14.367,-8.521 -8.368,-6.649 -16.621,-13.382 -24.132,-21.171 -9.234,-9.577 -16.184,-20.496 -22.177,-32.032 -4.21,-8.102 -6.621,-17.061 -9.234,-25.921 -2.486,-8.426 -3.621,-16.73 -3.624,-25.307 -0.042,-141.663 -0.03,-283.326 -0.029,-424.989 0,-17.507 -0.706,-34.978 6.679,-51.69 3.245,-7.346 5.193,-15.279 9.549,-22.186 5.503,-8.728 11.368,-17.136 17.996,-25.115 5.4,-6.5 12.011,-11.4 18.285,-16.755 5.394,-4.602 11.783,-7.835 17.854,-11.515 6.411,-3.886 13.182,-6.79 19.998,-9.603 5.623,-2.321 11.557,-4.151 17.526,-5.287 4.635,-0.882 8.922,-2.923 13.867,-2.92 165.496,0.112 330.992,0.093 496.488,0.093 m 1367.76,36.986 c -11.563,-3.088 -20.957,0.69 -29.024,10.519 0,-12.532 0.069,-23.662 -0.05,-34.789 -0.029,-2.688 0.572,-3.941 3.555,-3.769 4.472,0.258 8.964,0.151 13.449,0.199 12.299,-0.049 24.603,0.041 36.9,-0.227 3.855,-0.084 5.119,0.917 5.086,4.96 -0.191,23.274 -0.087,46.551 -0.109,69.826 -0.001,1.456 0.396,3.018 -0.714,4.305 0.197,3.299 0.546,6.596 0.563,9.894 0.067,12.587 0.149,25.175 -0.051,37.758 -0.055,3.541 1.092,4.529 4.512,4.406 7.277,-0.261 14.568,-0.141 21.855,-0.177 l 0,-14.614 c 2.018,2.941 3.078,4.575 4.227,6.144 4.785,6.53 10.899,10.646 19.314,10.58 12.74,-0.1 19.462,-8.178 24.088,-18.592 6.671,-15.016 7.319,-30.987 6.083,-47.014 -0.676,-8.773 -2.689,-17.368 -7.089,-25.253 -10.692,-19.158 -31.699,-19.22 -42.255,-6.143 -0.465,0.575 -0.902,1.459 -2.352,1.07 0,-10.356 0.286,-20.806 -0.125,-31.229 -0.197,-4.984 1.43,-5.952 6.133,-5.945 106.291,0.137 212.582,0.105 318.873,0.105 9.526,0 9.854,0.743 5.1,9.368 -7.025,12.745 -14.129,25.455 -20.748,38.411 -12.137,23.752 -24.695,47.275 -37.42,70.713 -7.595,13.99 -14.818,28.184 -22.198,42.291 -7.821,14.95 -15.098,30.217 -23.589,44.777 -8.989,15.415 -16.533,31.568 -25.327,47.088 -8.705,15.363 -16.41,31.333 -24.761,46.934 -13.613,25.43 -26.774,51.1 -40.143,76.659 -0.895,1.713 -1.436,3.771 -4.082,3.774 -2.817,0.002 -3.504,-2.271 -4.438,-4.051 -2.538,-4.832 -4.578,-9.943 -7.346,-14.629 -1.448,-2.45 -1.669,-5.887 -4.88,-7.166 -15.314,19.403 -30.584,38.842 -45.954,58.2 -13.93,17.542 -28.007,34.968 -41.95,52.5 -13.117,16.496 -26.077,33.118 -39.23,49.586 -14.5,18.156 -29.21,36.146 -43.704,54.307 -18.63,23.344 -37.11,46.807 -55.702,70.182 -19.216,24.162 -38.488,48.281 -57.736,72.418 -14.902,18.688 -29.867,37.325 -44.633,56.119 -2.257,2.872 -3.278,2.679 -5.403,-0.013 -12.853,-16.282 -25.869,-32.435 -38.812,-48.645 -13.463,-16.862 -26.921,-33.727 -40.353,-50.615 -16.734,-21.039 -33.41,-42.124 -50.163,-63.148 -19.438,-24.394 -38.932,-48.744 -58.402,-73.113 -4.708,7.098 -8.644,14.628 -12.698,22.109 -6.463,11.924 -13.396,23.592 -20.063,35.406 -1.018,1.805 -1.918,3.512 -4.322,3.51 -2.263,-0.002 -2.295,-2.032 -3.051,-3.373 -7.788,-13.826 -15.51,-27.691 -23.344,-41.49 -10.77,-18.964 -21.695,-37.842 -32.417,-56.835 -9.166,-16.233 -18.033,-32.634 -27.23,-48.849 -7.417,-13.076 -15.508,-25.782 -22.605,-39.025 -7.531,-14.047 -15.54,-27.81 -23.344,-41.696 -17.178,-30.562 -34.276,-61.17 -51.516,-91.697 -8.537,-15.117 -17.4,-30.05 -25.968,-45.151 -12.043,-21.227 -23.975,-42.516 -35.901,-63.809 -8.319,-14.854 -16.477,-29.798 -24.844,-44.625 -5.931,-10.513 -12.337,-20.764 -18.077,-31.377 -5.877,-10.864 -12.191,-21.477 -17.959,-32.412 -8.025,-15.217 -17.112,-29.873 -25.693,-44.799 -3.756,-6.533 -2.979,-7.834 4.435,-7.834 216.62,-0.001 433.241,-0.001 649.86,-0.001 1.167,0 2.338,0.069 3.499,-0.01 2.094,-0.141 3.101,0.704 2.985,2.872 -0.284,5.307 0.544,10.642 -0.4,15.935 0.114,10.819 0.304,21.64 0.325,32.46 0.049,24.993 0.083,49.987 -0.06,74.98 -0.02,3.581 0.696,5.086 4.635,4.853 5.812,-0.346 11.664,-0.247 17.488,-0.026 3.167,0.12 4.581,-0.695 4.272,-4.113 -0.276,-3.051 -0.058,-6.145 -0.058,-10.181 2.775,3.568 4.688,6.44 7.005,8.938 9.613,10.364 25.762,9.73 34.669,-1.279 2.739,-3.387 4.788,-7.178 6.484,-11.196 5.721,-13.542 6.259,-27.797 5.963,-42.179 -0.335,-2.451 -0.659,-4.905 -1.006,-7.354 -2.143,-15.121 -6.868,-28.65 -22.059,-35.713"
             style="fill:#fefefe;fill-opacity:1;fill-rule:nonzero;stroke:none"
             id="path22"
             inkscape:connector-curvature="0" /></g><g
           id="g24"
           transform="translate(1689.79,527.0254)"><path
             d="m 0,0 c 0,21.822 -0.063,43.645 0.068,65.466 0.021,3.374 -0.755,4.74 -4.399,4.589 -6.652,-0.277 -13.328,-0.23 -19.984,-0.014 -3.194,0.104 -4.338,-0.763 -4.331,-4.141 0.099,-43.976 0.102,-87.954 -0.003,-131.93 -0.009,-3.47 1.304,-4.179 4.399,-4.083 6.157,0.193 12.34,0.322 18.483,-0.033 4.446,-0.255 5.95,0.914 5.888,5.681 C -0.156,-42.979 10e-4,-21.488 0,0 m 16.281,-22.494 c 0.09,-8.016 -0.094,-17.485 0.858,-26.959 1.28,-12.746 6.931,-20.374 17.719,-22.167 7.993,-1.329 15.909,-0.056 23.713,1.866 1.939,0.478 2.601,1.605 2.385,3.653 -0.681,6.444 -1.282,12.899 -1.707,19.364 -0.18,2.737 -1.216,3.038 -3.473,2.059 -7.595,-3.291 -11.062,-0.867 -11.33,8.512 -0.267,9.316 -0.091,18.646 -0.096,27.97 -0.007,10.987 -0.002,10.987 11.168,11.139 0.333,0.005 0.67,0.04 0.998,-0.004 2.907,-0.389 3.737,0.995 3.637,3.741 -0.168,4.655 -0.045,9.322 -0.045,13.984 0,11.208 -0.004,11.432 -10.983,11.199 -4.215,-0.09 -4.94,1.455 -4.851,5.159 0.224,9.153 0.105,18.314 0.04,27.471 -0.009,1.394 0.789,3.339 -0.76,4.072 -1.495,0.71 -2.623,-1.063 -3.8,-1.849 C 35.327,63.758 31.272,60.118 26.573,57.724 18.124,53.418 14.374,47.197 16.274,37.776 17.276,32.804 14.974,31.183 10.298,31.965 7.097,32.501 5.915,31.203 6.042,27.865 6.282,21.548 6.436,15.191 6.005,8.895 5.678,4.103 7.068,2.052 11.974,2.934 15.587,3.583 16.471,1.822 16.35,-1.553 16.116,-8.038 16.281,-14.537 16.281,-22.494 m -81.935,-32.058 c 0,-4.768 0.1,-8.369 -0.034,-11.962 -0.093,-2.463 0.577,-3.648 3.33,-3.587 6.66,0.15 13.329,0.145 19.99,0.001 2.726,-0.058 3.363,1.105 3.359,3.579 -0.054,31.656 -0.068,63.311 0.019,94.966 0.008,2.993 -1.195,3.633 -3.866,3.576 -6.496,-0.139 -13.006,-0.279 -19.489,0.041 -4.071,0.2 -5.391,-0.949 -5.338,-5.195 0.21,-16.657 0.053,-33.319 -0.032,-49.979 -0.023,-4.546 -0.887,-8.972 -3.172,-12.951 -1.876,-3.268 -4.808,-5.188 -8.663,-4.808 -3.868,0.382 -6.169,2.796 -7.41,6.479 -0.93,2.757 -1.069,5.555 -1.079,8.376 -0.061,17.828 -0.148,35.655 -0.032,53.481 0.022,3.366 -0.755,4.743 -4.403,4.59 -6.652,-0.278 -13.334,-0.285 -19.986,0.003 -3.681,0.159 -4.376,-1.257 -4.353,-4.596 0.147,-21.325 0.058,-42.651 0.136,-63.978 0.024,-6.523 1.056,-12.942 3.227,-19.105 6.373,-18.092 26.718,-22.471 40.022,-8.583 2.517,2.626 4.593,5.673 7.774,9.652 m -87.089,-2.003 c 0,-3.586 0.132,-6.849 -0.041,-10.097 -0.14,-2.621 0.84,-3.501 3.441,-3.447 6.493,0.138 12.995,0.197 19.484,-0.02 3.217,-0.109 3.974,1.195 3.866,4.106 -0.18,4.824 -0.049,9.659 -0.049,14.489 0,38.639 -0.091,77.279 0.117,115.918 0.027,4.756 -1.43,5.947 -5.88,5.67 -5.806,-0.36 -11.669,-0.354 -17.476,0 -4.245,0.26 -5.752,-0.771 -5.616,-5.383 0.361,-12.314 0.15,-24.646 0.084,-36.97 -0.008,-1.353 0.693,-2.933 -0.954,-4.416 -1.025,1.166 -1.945,2.338 -2.992,3.381 -9.586,9.553 -23.747,9.984 -33.698,0.914 -5.56,-5.068 -8.977,-11.536 -11.103,-18.659 -3.723,-12.476 -3.963,-25.313 -2.888,-38.109 0.852,-10.137 3.355,-20.001 8.388,-29.028 9.85,-17.667 30.271,-18.801 41.853,-2.345 0.907,1.289 1.388,2.959 3.464,3.996 m -106.932,126.53 c -4.163,0 -8.342,-0.228 -12.482,0.07 -3.419,0.247 -4.919,-0.852 -5.84,-4.284 -11.836,-44.121 -23.823,-88.202 -35.825,-132.279 -0.636,-2.337 -0.85,-3.635 2.357,-3.568 8.487,0.181 16.985,0.188 25.472,-0.007 2.937,-0.067 3.678,1.414 4.136,3.763 0.985,5.053 2.174,10.067 3.075,15.133 0.504,2.83 1.415,4.322 4.783,4.23 9.317,-0.256 18.646,-0.157 27.97,-0.046 2.622,0.032 3.858,-0.754 4.321,-3.503 0.854,-5.071 2.294,-10.042 3.184,-15.109 0.584,-3.326 1.881,-4.669 5.534,-4.504 7.477,0.336 14.98,0.078 22.473,0.075 5.851,-0.002 5.858,0.007 4.266,5.893 -10.93,40.41 -21.859,80.819 -32.793,121.227 -3.492,12.91 -3.497,12.909 -17.135,12.909 z m 408.125,-142 c 22.098,-0.025 35.618,8.609 42.533,26.761 2.27,5.957 3.123,12.152 3.587,18.523 1.471,20.22 -7.764,35.734 -26.187,43.842 -8.557,3.765 -17.707,5.793 -26.266,9.449 -5.348,2.285 -7.075,6.25 -5.875,11.784 1.006,4.636 4.997,7.562 10.372,7.604 7.86,0.061 12.629,-4.407 14.505,-14.258 0.57,-2.993 1.691,-3.944 4.574,-3.621 5.782,0.645 11.597,0.986 17.371,1.684 8.54,1.031 8.722,1.154 7.037,9.851 -2.923,15.077 -10.125,26.699 -26.089,30.813 -6.855,1.767 -13.847,1.904 -20.833,1.434 -17.655,-1.19 -29.555,-10.58 -34.454,-26.967 -5.287,-17.683 -0.086,-36.054 13.076,-46.063 7.542,-5.737 16.251,-9.005 25.189,-11.762 4.15,-1.28 8.221,-2.76 11.741,-5.371 5.489,-4.073 7.156,-12.176 3.895,-18.47 -3.073,-5.929 -9.355,-8.506 -16.133,-6.563 -9.17,2.628 -11.902,10.126 -13.025,18.287 -0.515,3.734 -1.96,4.251 -5.089,3.926 -7.275,-0.753 -14.562,-1.515 -21.863,-1.872 -3.674,-0.178 -3.494,-2.252 -3.181,-4.673 1.003,-7.786 2.799,-15.365 6.067,-22.547 5.039,-11.076 13.396,-18.058 25.402,-20.405 4.731,-0.924 9.504,-1.739 13.646,-1.386 M -79.383,201.301 c 1.603,-2.271 3.128,-4.366 4.589,-6.507 21.3,-31.228 42.646,-62.424 63.8,-93.75 2.05,-3.036 4.172,-4.066 7.691,-4.034 16.994,0.154 33.99,0.065 50.987,0.071 6.875,0.003 7.585,0.678 7.586,7.307 0.004,65.15 0.005,130.3 -0.002,195.45 0,6.18 -0.819,7.019 -6.861,7.026 -16.663,0.018 -33.325,0.01 -49.988,0.004 -7.09,-0.002 -8.102,-1.004 -8.103,-8.043 -0.004,-30.659 -0.002,-61.317 -0.002,-91.976 l 0,-6.456 c -3.317,4.794 -5.703,8.19 -8.036,11.622 -20.502,30.158 -41.034,60.297 -61.433,90.525 -2.183,3.233 -4.568,4.486 -8.53,4.431 -16.826,-0.237 -33.657,-0.09 -50.486,-0.107 -6.033,-0.007 -6.872,-0.857 -6.873,-7.019 -0.009,-65.15 -0.008,-130.3 -0.002,-195.45 0,-6.477 0.805,-7.306 7.084,-7.311 16.663,-0.014 33.325,-0.011 49.988,-0.002 6.734,0.004 7.355,0.64 7.356,7.533 0.006,30.325 -0.011,60.652 0.038,90.977 0.003,1.722 -0.692,3.642 1.197,5.709 M 288.551,-80.232 c 0.947,-5.29 0.119,-10.625 0.403,-15.932 0.116,-2.168 -0.891,-3.014 -2.985,-2.872 -1.161,0.079 -2.332,0.01 -3.499,0.01 -216.619,0 -433.241,0 -649.86,10e-4 -7.414,0 -8.191,1.3 -4.435,7.834 8.581,14.925 17.668,29.582 25.693,44.798 5.768,10.936 12.082,21.548 17.959,32.413 5.74,10.613 12.146,20.864 18.077,31.376 8.367,14.828 16.525,29.772 24.844,44.625 11.926,21.293 23.858,42.583 35.901,63.809 8.568,15.102 17.431,30.034 25.968,45.151 17.24,30.528 34.338,61.135 51.516,91.698 7.804,13.885 15.813,27.648 23.344,41.696 7.097,13.242 15.188,25.948 22.605,39.024 9.197,16.215 18.064,32.617 27.23,48.85 10.722,18.992 21.647,37.87 32.417,56.835 7.834,13.799 15.556,27.663 23.344,41.489 0.756,1.342 0.788,3.371 3.051,3.373 2.404,0.002 3.304,-1.705 4.322,-3.509 6.667,-11.815 13.6,-23.483 20.063,-35.407 4.054,-7.48 7.99,-15.01 12.698,-22.108 2.847,-7.229 7.499,-13.48 11.115,-20.301 8.025,-15.137 16.928,-29.808 25.408,-44.705 6.245,-10.971 12.386,-22 18.574,-33.003 8.159,-14.385 16.298,-28.781 24.495,-43.144 1.761,-3.084 2.563,-6.849 5.997,-8.801 1.645,-7.27 3.311,-14.535 4.933,-21.811 11.821,-53.044 23.684,-106.078 35.339,-159.158 0.859,-3.911 2.301,-5.038 6.187,-5.01 19.325,0.141 38.652,-0.014 57.978,-0.065 6.155,-11.268 12.245,-22.572 18.482,-33.794 5.768,-10.379 11.696,-20.671 17.554,-31 -2.165,-0.052 -4.33,-0.058 -6.491,-0.163 -4.959,-0.24 -11.483,2.103 -14.466,-0.868 -3.221,-3.209 -0.968,-9.791 -1.01,-14.89 -0.131,-15.828 -0.01,-31.658 -0.068,-47.487 -0.018,-5.174 0.313,-10.302 1.029,-15.424 2.385,-17.069 11.757,-26.064 26.397,-25.298 8.572,0.449 14.461,5.244 19.382,11.729 1.213,1.6 1.802,3.815 4.302,4.939 0,-3.795 0.165,-7.127 -0.048,-10.434 -0.201,-3.119 0.638,-4.491 4.101,-4.362 7.488,0.28 14.991,0.162 22.487,0.207 2.15,0.003 3.01,-1.503 3.875,-3.148 1.35,-2.571 2.82,-5.08 4.284,-7.589 0.968,-1.658 438.79119,19.821695 439.27919,20.027695"
             style="fill:#88a398;fill-opacity:1;fill-rule:evenodd;stroke:none"
             id="path26"
             inkscape:connector-curvature="0"
             sodipodi:nodetypes="ccccccccccccccccccccccsccccccccccccccccccccccccccccccscscccccccsccccccccccsccscccccccccccccscsscccccccsccccccccccccccccccccccccccccscccccccccccccscssccccscssccccccccccsccccccccccccccccccccccc" /></g><g
           id="g28"
           transform="translate(1878.0137,1168.6787)"><path
             d="m 0,0 c -1.317,-0.118 -1.918,-1.191 -2.625,-2.078 -19.029,-23.885 -37.893,-47.903 -57.218,-71.546 -3.289,-4.024 -2.793,-6.494 -0.443,-10.294 10.295,-16.652 20.361,-33.446 30.499,-50.195 0.93,-1.536 1.417,-4.082 3.308,-3.987 2.004,0.101 2.77,2.566 3.802,4.274 11.499,19.033 23.144,37.979 34.477,57.11 2.524,4.263 3.235,2.51 4.948,-0.374 7.447,-12.536 15.1,-24.95 22.6,-37.455 1.34,-2.236 2.076,-1.991 3.317,0.076 6.234,10.381 12.511,20.738 18.902,31.022 1.861,2.992 1.652,5.444 -0.521,8.156 C 41.542,-50.947 22.099,-26.556 2.633,-2.183 1.917,-1.285 1.278,-0.272 0,0 m -135.92,-306.74 c -6.187,11.003 -12.329,22.032 -18.573,33.003 -8.481,14.897 -17.384,29.568 -25.408,44.705 -3.617,6.821 -8.269,13.072 -11.116,20.301 19.47,24.369 38.964,48.718 58.403,73.112 16.753,21.024 33.428,42.109 50.163,63.148 13.431,16.888 26.889,33.753 40.352,50.616 12.944,16.209 25.959,32.362 38.812,48.644 2.125,2.692 3.146,2.885 5.403,0.013 14.767,-18.794 29.732,-37.431 44.633,-56.118 19.248,-24.138 38.521,-48.256 57.736,-72.418 18.592,-23.375 37.073,-46.838 55.702,-70.183 14.495,-18.161 29.205,-36.15 43.705,-54.307 13.152,-16.467 26.112,-33.089 39.229,-49.586 13.943,-17.532 28.021,-34.958 41.95,-52.5 15.37,-19.358 30.64,-38.796 45.953,-58.201 0.166,-1.913 -0.641,-3.545 -1.53,-5.134 -3.851,-6.887 -7.565,-13.859 -11.644,-20.61 -2.856,-4.724 -3.998,-10.367 -7.936,-14.476 -10.453,17.994 -20.997,35.936 -31.336,53.995 -14.113,24.651 -28.076,49.389 -42.081,74.103 -0.833,1.47 -1.46,3.023 -3.567,2.92 -2.143,-0.104 -3.162,-1.524 -4.053,-3.204 -2.861,-5.394 -5.477,-10.946 -8.746,-16.083 -1.753,-2.756 -2.071,-6.891 -6.211,-7.81 -6.286,10.44 -12.662,20.827 -18.836,31.331 -7.652,13.021 -15.128,26.146 -22.701,39.213 -2.11,3.64 -4.263,3.872 -6.551,0.359 -4.024,-6.18 -7.814,-12.515 -11.59,-18.852 -5.537,-9.292 -10.941,-18.663 -16.467,-27.962 -5.061,-8.518 -10.208,-16.985 -15.529,-25.827 -4.412,5.894 -7.39,12.219 -10.729,18.205 -9.199,16.489 -19.079,32.582 -27.98,49.249 -7.289,13.651 -15.632,26.736 -23.453,40.104 -4.453,7.609 -8.785,15.289 -13.195,22.924 -2.262,3.914 -4.696,2.696 -6.01,-0.421 -2.135,-5.062 -5.283,-9.494 -7.935,-14.225 -8.479,-15.125 -17.099,-30.174 -25.752,-45.202 -9.213,-16.002 -18.411,-32.016 -27.873,-47.871 -2.569,-4.305 -3.966,-9.432 -8.202,-12.674 -0.517,3.051 -2.849,5.034 -4.348,7.515 -8.336,13.798 -16.622,27.629 -24.794,41.523 -7.64,12.988 -15.111,26.075 -22.672,39.109 -2.079,3.584 -4.216,3.805 -6.457,0.23 -5.992,-9.557 -11.819,-19.22 -17.564,-28.927 -8.43,-14.243 -16.661,-28.603 -25.147,-42.813 -1.831,-3.068 -3.152,-6.553 -6.055,-8.918"
             style="fill:#adc8c8;fill-opacity:1;fill-rule:evenodd;stroke:none"
             id="path30"
             inkscape:connector-curvature="0" /></g><g
           id="g36"
           transform="translate(2265.9941,543.3184)"><path
             d="m 0,0 c 0,4.853 -0.088,8.686 0.033,12.512 0.075,2.366 -0.836,3.235 -3.199,3.199 -6.496,-0.1 -12.996,-0.119 -19.492,0.009 -2.59,0.051 -3.494,-0.864 -3.489,-3.464 0.058,-31.657 0.066,-63.315 -0.012,-94.971 -0.008,-2.898 1.079,-3.721 3.813,-3.664 6.662,0.137 13.336,0.235 19.991,-0.032 3.615,-0.146 4.46,1.181 4.421,4.579 -0.15,13.16 -0.306,26.333 0.108,39.483 0.245,7.762 0.751,15.665 4.252,22.873 2.697,5.552 6.545,7.312 12.195,5.03 3.586,-1.449 4.627,-0.211 5.509,2.94 1.971,7.04 4.14,14.027 6.347,20.998 0.499,1.576 0.795,2.894 -0.713,3.993 C 22.483,18.796 11.697,20.197 6.035,11.257 3.938,7.942 2.303,4.335 0,0 m 42.061,-38.886 c 0.102,-7.944 -0.055,-17.402 0.859,-26.874 1.178,-12.206 6.494,-19.712 16.772,-21.897 8.328,-1.771 16.521,-0.284 24.646,1.614 2.235,0.522 2.646,1.967 2.374,4.142 -0.681,5.427 -1.499,10.885 -1.52,16.335 -0.017,4.571 -1.076,6.045 -5.589,4.057 -3.653,-1.608 -7.066,-1.184 -8.437,3.201 -0.73,2.339 -0.974,4.904 -1.008,7.372 -0.119,8.655 -0.054,17.312 -0.054,25.968 -0.002,11.458 -0.001,11.458 11.216,11.631 0.334,0.005 0.671,0.038 0.998,-0.004 2.903,-0.364 3.747,1.034 3.654,3.77 -0.159,4.656 -0.042,9.321 -0.042,13.981 0,11.144 -0.002,11.296 -11.074,11.187 -3.649,-0.036 -4.948,0.854 -4.841,4.702 0.265,9.647 0.032,19.307 0.117,28.962 0.028,3.259 -0.757,3.931 -3.562,1.881 -4.696,-3.433 -9.287,-7.148 -14.395,-9.849 -8.129,-4.3 -11.936,-10.295 -10.136,-19.541 0.887,-4.551 -0.664,-6.992 -5.753,-6.086 -3.545,0.631 -4.582,-1.032 -4.438,-4.483 0.256,-6.149 0.388,-12.335 -0.011,-18.468 -0.306,-4.685 0.911,-6.944 5.913,-6.064 3.641,0.64 4.486,-1.195 4.374,-4.536 -0.218,-6.484 -0.063,-12.982 -0.063,-21.001 m -74.985,6.74 c 0.067,8.671 -2.039,19.66 -7.617,29.839 -13.606,24.829 -48.33,27.362 -65.312,4.769 -14.436,-19.205 -14.818,-53.585 -1.622,-73.706 14.841,-22.625 47.979,-21.935 62.389,-3.505 9.147,11.696 12.139,25.274 12.162,42.603 m -45.142,230.775 c 3.937,4.109 5.08,9.753 7.935,14.476 4.079,6.751 7.793,13.723 11.645,20.611 0.888,1.589 1.696,3.221 1.53,5.134 3.212,1.28 3.433,4.716 4.881,7.167 2.768,4.685 4.807,9.796 7.346,14.629 0.934,1.78 1.621,4.052 4.438,4.05 2.645,-0.003 3.187,-2.06 4.082,-3.773 13.369,-25.56 26.53,-51.23 40.143,-76.659 C 12.285,168.662 19.99,152.692 28.695,137.33 37.489,121.81 45.033,105.656 54.021,90.241 62.513,75.682 69.79,60.415 77.611,45.465 84.991,31.357 92.214,17.164 99.809,3.174 c 12.725,-23.439 25.283,-46.961 37.42,-70.713 6.619,-12.956 13.723,-25.666 20.748,-38.411 4.753,-8.625 4.426,-9.368 -5.1,-9.368 -106.291,0 -212.582,0.032 -318.873,-0.106 -4.703,-0.007 -6.33,0.961 -6.133,5.945 0.411,10.423 0.125,20.874 0.125,31.23 1.45,0.389 1.887,-0.495 2.352,-1.07 10.556,-13.077 31.563,-13.015 42.255,6.142 4.4,7.886 6.413,16.481 7.088,25.253 1.237,16.028 0.589,31.998 -6.083,47.015 -4.626,10.414 -11.347,18.492 -24.087,18.592 -8.416,0.066 -14.529,-4.05 -19.314,-10.58 -1.149,-1.57 -2.209,-3.204 -4.228,-6.144 l 0,14.613 c 6.316,12.141 12.576,24.311 18.96,36.414 10.2,19.337 20.462,38.642 30.74,57.938 6.845,12.851 13.787,25.653 20.641,38.501 5.996,11.239 12.047,22.452 17.842,33.796 2.749,5.383 6.582,10.279 7.772,16.408"
             style="fill:#a1bdad;fill-opacity:1;fill-rule:evenodd;stroke:none"
             id="path38"
             inkscape:connector-curvature="0" /></g><g
           id="g40"
           transform="translate(2187.9277,741.9473)"><path
             d="m 0,0 c -1.189,-6.129 -5.022,-11.025 -7.771,-16.408 -5.795,-11.344 -11.846,-22.557 -17.842,-33.796 -6.855,-12.848 -13.796,-25.65 -20.642,-38.501 -10.277,-19.296 -20.54,-38.601 -30.739,-57.938 -6.385,-12.103 -12.645,-24.273 -18.96,-36.414 -7.286,0.036 -14.577,-0.084 -21.855,0.178 -3.42,0.123 -4.567,-0.865 -4.511,-4.406 0.199,-12.583 0.117,-25.171 0.05,-37.758 -0.017,-3.299 -0.366,-6.596 -0.563,-9.894 -2.009,-2.653 -4.019,-5.305 -6.027,-7.958 0.296,14.382 -0.243,28.637 -5.963,42.179 -1.697,4.019 -3.745,7.81 -6.485,11.196 -8.907,11.009 -25.055,11.644 -34.669,1.28 -2.317,-2.498 -4.23,-5.37 -7.004,-8.939 0,4.036 -0.218,7.131 0.057,10.182 0.31,3.418 -1.104,4.232 -4.271,4.112 -5.825,-0.22 -11.677,-0.319 -17.489,0.027 -3.939,0.233 -4.655,-1.272 -4.634,-4.853 0.142,-24.993 0.108,-49.987 0.059,-74.98 -0.02,-10.821 -0.211,-21.641 -0.326,-32.461 -0.489,-0.208 -0.542,-2.086 -1.51,-0.428 -1.464,2.509 -2.933,5.018 -4.284,7.589 -0.865,1.645 -1.725,3.151 -3.874,3.148 0.012,32.62 -0.024,65.241 0.103,97.862 0.013,3.411 -1.186,4.207 -4.339,4.1 -6.318,-0.214 -12.659,-0.303 -18.968,0.023 -4.051,0.209 -5.412,-0.882 -5.34,-5.157 0.231,-13.639 -0.004,-27.288 -0.058,-40.933 -1.194,0.427 -1.751,1.418 -2.324,2.461 -5.236,9.535 -10.502,19.052 -15.758,28.576 9.394,19.007 20.827,36.874 30.991,55.45 4.438,8.113 9.84,15.714 13.014,24.498 12.662,0.042 25.325,0.097 37.987,0.123 9.302,0.02 9.306,0.003 11.352,8.849 0.562,2.429 1.102,4.864 1.642,7.299 8.846,39.924 17.69,79.848 26.537,119.774 1.129,0.24 1.515,1.202 2.01,2.062 13.717,23.769 27.564,47.463 41.019,71.379 2.167,3.851 6.364,7.091 5.391,12.398 4.14,0.92 4.458,5.055 6.211,7.81 3.269,5.137 5.885,10.69 8.746,16.083 0.891,1.68 1.91,3.1 4.053,3.205 2.107,0.102 2.734,-1.451 3.567,-2.92 14.005,-24.714 27.968,-49.453 42.081,-74.104 C -20.997,35.937 -10.453,17.994 0,0"
             style="fill:#739589;fill-opacity:1;fill-rule:evenodd;stroke:none"
             id="path42"
             inkscape:connector-curvature="0" /></g><g
           id="g44"
           transform="translate(2059.0674,499.0527)"><path
             d="M 0,0 C 2.009,2.652 4.019,5.305 6.027,7.957 7.138,6.67 6.74,5.108 6.741,3.652 c 0.023,-23.275 -0.082,-46.551 0.11,-69.826 0.033,-4.043 -1.231,-5.044 -5.086,-4.96 -12.297,0.268 -24.601,0.178 -36.901,0.227 0.663,4.288 2.334,8.1 4.394,11.969 2.749,5.167 6.81,9.78 7.677,15.872 15.191,7.062 19.916,20.591 22.058,35.712 C -0.659,-4.904 -0.335,-2.451 0,0"
             style="fill:#a1bdad;fill-opacity:1;fill-rule:evenodd;stroke:none"
             id="path46"
             inkscape:connector-curvature="0" /></g><g
           id="g48"
           transform="translate(2006.9316,508.3594)"><path
             d="m 0,0 c -0.209,5.237 0.214,10.559 2.294,15.553 1.809,4.345 4.645,7.936 9.852,7.968 5.084,0.031 7.856,-3.559 9.334,-7.786 3.804,-10.876 3.618,-21.921 -0.043,-32.788 -1.323,-3.929 -4.117,-7.006 -8.697,-7.198 -4.752,-0.2 -7.694,2.741 -9.755,6.611 C 0.068,-12.16 -0.196,-6.171 0,0"
             style="fill:#739589;fill-opacity:1;fill-rule:evenodd;stroke:none"
             id="path50"
             inkscape:connector-curvature="0" /></g><g
           id="g52"
           transform="translate(2093.957,508.5439)"><path
             d="m 0,0 c -0.311,4.946 0.153,10.412 2.295,15.549 1.732,4.157 4.498,7.574 9.425,7.816 5.11,0.252 7.915,-3.172 9.535,-7.402 4.266,-11.142 3.861,-22.442 0.032,-33.572 -1.277,-3.716 -4.139,-6.513 -8.433,-6.856 -4.344,-0.347 -7.117,2.179 -9.259,5.616 C 0.085,-13.216 -0.147,-6.936 0,0"
             style="fill:#a1bdad;fill-opacity:1;fill-rule:evenodd;stroke:none"
             id="path54"
             inkscape:connector-curvature="0" /></g><g
           id="g56"
           transform="translate(2036.002,455.9863)"><path
             d="m 0,0 c -0.866,-6.092 -4.928,-10.704 -7.677,-15.871 -2.059,-3.869 -3.73,-7.682 -4.393,-11.97 -4.485,-0.048 -8.977,0.06 -13.449,-0.198 -2.983,-0.172 -3.584,1.081 -3.555,3.768 0.119,11.127 0.05,22.257 0.05,34.79 C -20.957,0.689 -11.563,-3.088 0,0"
             style="fill:#739589;fill-opacity:1;fill-rule:evenodd;stroke:none"
             id="path58"
             inkscape:connector-curvature="0" /></g><g
           id="g60"
           transform="translate(2043.5127,760.0283)"><path
             d="m 0,0 c -8.846,-39.925 -17.69,-79.849 -26.536,-119.773 -0.54,-2.435 -1.08,-4.87 -1.642,-7.299 -2.046,-8.846 -2.05,-8.829 -11.352,-8.849 -12.662,-0.026 -25.324,-0.081 -37.987,-0.123 -4.658,0.046 -9.339,0.392 -13.968,0.044 -3.746,-0.281 -5.125,1.2 -6.061,4.621 -7.93,28.999 -16.016,57.956 -24.078,86.919 -2.607,9.367 -5.289,18.713 -8.25,29.172 -0.803,-2.818 -1.266,-4.408 -1.71,-6.003 -10.239,-36.807 -20.496,-73.607 -30.667,-110.433 -0.664,-2.401 -1.067,-4.6 -4.238,-4.355 -19.326,0.051 -38.654,0.206 -57.979,0.065 -3.886,-0.028 -5.328,1.099 -6.186,5.01 -11.656,53.08 -23.519,106.114 -35.339,159.158 -1.622,7.276 -3.288,14.541 -4.934,21.812 -1.143,5.179 -2.294,10.355 -3.428,15.536 -1.515,6.911 -0.392,8.345 6.545,8.347 17.103,0.005 34.209,-0.217 51.304,0.14 4.808,0.102 7.069,-1.207 7.183,-5.958 6.063,-32.238 12.127,-64.475 18.19,-96.713 1.371,1.915 2.017,3.922 2.576,5.952 8.436,30.607 16.918,61.203 25.213,91.848 0.995,3.68 2.531,4.917 6.438,4.866 18.153,-0.237 36.311,-0.217 54.466,-0.008 3.548,0.041 4.891,-1.157 5.771,-4.415 5.632,-20.863 11.437,-41.678 17.204,-62.503 3.35,-12.094 6.736,-24.179 10.486,-37.641 6.375,33.836 12.554,66.169 18.468,98.55 0.832,4.553 2.304,6.183 7.242,6.058 16.647,-0.421 33.309,-0.224 49.965,-0.254 8.477,-0.015 9.1,-0.895 7.239,-9.417 C 9.251,42.911 4.64,21.452 0,0"
             style="fill:#fdfdfd;fill-opacity:1;fill-rule:evenodd;stroke:none"
             id="path62"
             inkscape:connector-curvature="0" /></g><g
           id="g64"
           transform="translate(1610.4072,728.3262)"><path
             d="m 0,0 c -1.89,-2.066 -1.194,-3.986 -1.197,-5.709 -0.049,-30.325 -0.032,-60.651 -0.038,-90.977 -10e-4,-6.893 -0.622,-7.529 -7.356,-7.533 -16.663,-0.009 -33.325,-0.011 -49.988,0.002 -6.279,0.005 -7.084,0.834 -7.084,7.311 -0.006,65.15 -0.007,130.301 0.002,195.45 0.001,6.162 0.84,7.013 6.873,7.019 16.829,0.017 33.66,-0.129 50.486,0.107 3.962,0.056 6.347,-1.197 8.53,-4.431 C 20.627,71.011 41.159,40.872 61.661,10.714 63.994,7.282 66.38,3.887 69.697,-0.908 l 0,6.456 c 0,30.659 -0.003,61.317 0.002,91.976 0.001,7.039 1.013,8.041 8.103,8.043 16.663,0.006 33.325,0.014 49.988,-0.004 6.042,-0.006 6.86,-0.846 6.86,-7.026 0.008,-65.149 0.007,-130.3 0.002,-195.45 -10e-4,-6.629 -0.711,-7.304 -7.586,-7.307 -16.996,-0.006 -33.992,0.083 -50.986,-0.071 -3.519,-0.032 -5.642,0.998 -7.691,4.034 -21.155,31.326 -42.5,62.523 -63.8,93.75 C 3.128,-4.366 1.603,-2.271 0,0"
             style="fill:url(#linearGradient3501);fill-opacity:1;fill-rule:evenodd;stroke:none"
             id="path66"
             inkscape:connector-curvature="0" /></g><g
           id="g68"
           transform="translate(1838.2402,455)"><path
             d="m 0,0 c -4.143,-0.353 -8.915,0.463 -13.646,1.387 -12.006,2.346 -20.363,9.329 -25.402,20.404 -3.268,7.183 -5.064,14.762 -6.067,22.548 -0.313,2.421 -0.493,4.494 3.18,4.673 7.302,0.356 14.588,1.119 21.864,1.872 3.129,0.324 4.574,-0.193 5.089,-3.927 1.123,-8.16 3.855,-15.658 13.025,-18.287 6.777,-1.942 13.06,0.635 16.133,6.563 3.261,6.294 1.594,14.398 -3.895,18.47 -3.52,2.611 -7.592,4.091 -11.741,5.371 -8.938,2.757 -17.647,6.026 -25.189,11.762 -13.163,10.01 -18.363,28.381 -13.077,46.063 4.9,16.387 16.8,25.778 34.455,26.967 6.986,0.47 13.978,0.333 20.833,-1.433 15.963,-4.115 23.166,-15.737 26.088,-30.814 1.686,-8.696 1.504,-8.819 -7.036,-9.85 -5.774,-0.699 -11.59,-1.04 -17.371,-1.685 -2.884,-0.322 -4.004,0.629 -4.574,3.621 -1.876,9.852 -6.646,14.319 -14.505,14.258 -5.375,-0.042 -9.366,-2.968 -10.372,-7.604 -1.2,-5.534 0.526,-9.499 5.875,-11.784 C 2.226,94.919 11.376,92.892 19.933,89.126 38.355,81.019 47.591,65.504 46.12,45.284 45.656,38.913 44.803,32.719 42.533,26.762 35.618,8.609 22.098,-0.024 0,0"
             style="fill:#fdfdfd;fill-opacity:1;fill-rule:evenodd;stroke:none"
             id="path70"
             inkscape:connector-curvature="0" /></g><g
           id="g72"
           transform="translate(1429.4316,558.7959)"><path
             d="m 0,0 c -3.426,-15.518 -6.66,-30.42 -10.049,-45.288 -0.618,-2.712 0.019,-3.619 2.794,-3.543 4.996,0.137 10.007,0.215 14.994,-0.028 3.205,-0.156 3.473,1.053 2.857,3.75 C 8.003,-33.766 5.621,-22.374 3.041,-11.027 2.246,-7.53 2.091,-3.823 0,0 m 0.684,38.204 3.496,0 c 13.637,0 13.642,10e-4 17.134,-12.908 10.934,-40.408 21.864,-80.817 32.793,-121.228 1.592,-5.885 1.585,-5.894 -4.265,-5.892 -7.493,0.003 -14.996,0.261 -22.474,-0.075 -3.652,-0.165 -4.95,1.177 -5.534,4.503 -0.89,5.068 -2.33,10.039 -3.184,15.11 -0.463,2.749 -1.699,3.534 -4.321,3.503 -9.323,-0.112 -18.652,-0.21 -27.97,0.046 -3.368,0.091 -4.279,-1.401 -4.783,-4.231 -0.9,-5.065 -2.09,-10.08 -3.075,-15.133 -0.458,-2.348 -1.198,-3.83 -4.136,-3.762 -8.487,0.194 -16.984,0.187 -25.471,0.007 -3.207,-0.068 -2.994,1.23 -2.358,3.568 12.002,44.076 23.989,88.157 35.825,132.278 0.921,3.433 2.421,4.531 5.84,4.284 4.141,-0.297 8.32,-0.07 12.483,-0.07"
             style="fill:#fdfefd;fill-opacity:1;fill-rule:evenodd;stroke:none"
             id="path74"
             inkscape:connector-curvature="0" /></g><g
           id="g76"
           transform="translate(1535.0713,507.667)"><path
             d="m 0,0 c 0.169,5.858 -0.082,11.632 -2.762,17.042 -2.065,4.169 -5.055,7.238 -9.912,7.156 -5.089,-0.085 -7.713,-3.851 -9.044,-8.097 -3.21,-10.234 -3.301,-20.663 -0.138,-30.919 1.413,-4.581 4.09,-8.534 9.662,-8.77 4.292,-0.183 8.164,3.28 10.24,8.863 C -0.185,-9.965 0.168,-5.013 0,0 m 1.976,-37.196 c -2.077,-1.037 -2.557,-2.707 -3.464,-3.996 -11.582,-16.456 -32.003,-15.323 -41.853,2.344 -5.033,9.028 -7.536,18.891 -8.388,29.029 -1.076,12.796 -0.835,25.632 2.888,38.108 2.126,7.123 5.543,13.592 11.103,18.659 9.951,9.071 24.112,8.639 33.698,-0.914 1.047,-1.043 1.967,-2.215 2.992,-3.381 1.647,1.484 0.945,3.064 0.953,4.416 0.067,12.325 0.278,24.657 -0.084,36.97 -0.135,4.612 1.371,5.644 5.616,5.384 5.808,-0.355 11.67,-0.36 17.477,0 4.449,0.276 5.906,-0.914 5.88,-5.671 -0.208,-38.639 -0.117,-77.278 -0.117,-115.918 0,-4.83 -0.131,-9.665 0.049,-14.488 0.108,-2.911 -0.649,-4.215 -3.867,-4.107 -6.488,0.217 -12.99,0.158 -19.483,0.021 -2.602,-0.055 -3.581,0.825 -3.441,3.446 0.172,3.248 0.041,6.512 0.041,10.098"
             style="fill:#fdfdfd;fill-opacity:1;fill-rule:evenodd;stroke:none"
             id="path78"
             inkscape:connector-curvature="0" /></g><g
           id="g80"
           transform="translate(1877.0234,623.9492)"><path
             d="m 0,0 c 3.171,-0.245 3.574,1.954 4.238,4.355 10.171,36.826 20.428,73.626 30.667,110.433 0.445,1.595 0.908,3.185 1.71,6.003 2.961,-10.459 5.643,-19.805 8.25,-29.172 C 52.928,62.656 61.014,33.699 68.943,4.7 69.879,1.279 71.258,-0.202 75.004,0.079 79.633,0.427 84.314,0.081 88.973,0.035 85.798,-8.749 80.396,-16.35 75.958,-24.463 65.794,-43.039 54.361,-60.906 44.967,-79.914 c -0.713,0.324 -1.428,0.649 -2.142,0.974 -0.12,2.443 -0.556,4.921 -0.294,7.323 0.552,5.043 -1.03,7.685 -6.496,6.823 -5.857,10.329 -11.785,20.621 -17.554,31 C 12.244,-22.572 6.154,-11.268 0,0"
             style="fill:url(#linearGradient3509);fill-opacity:1;fill-rule:evenodd;stroke:none"
             id="path82"
             inkscape:connector-curvature="0" /></g><g
           id="g84"
           transform="matrix(0.8779204,0,0,1,1822.9465,828.0596)"><path
             d="M 0,0 C -0.114,4.751 -2.375,6.06 -7.183,5.958 -24.277,5.601 -41.384,5.822 -58.486,5.817 c -6.938,-0.002 -8.061,-1.435 -6.546,-8.346 1.135,-5.181 2.285,-10.358 3.428,-15.536 -3.433,1.951 -4.236,5.715 -5.997,8.799 -8.197,14.364 -16.336,28.76 -24.495,43.145 2.904,2.365 4.224,5.85 6.055,8.918 8.486,14.21 16.717,28.57 25.147,42.813 5.746,9.707 11.573,19.37 17.564,28.927 2.241,3.575 4.378,3.355 6.457,-0.229 7.561,-13.035 15.032,-26.121 22.672,-39.11 C -6.028,61.304 2.257,47.474 10.593,33.675 12.092,31.194 14.424,29.211 14.941,26.16 15.099,22.518 12.219,20.282 10.689,17.484 7.417,11.498 5.016,4.932 0,0"
             style="fill:#3a594c;fill-opacity:1;fill-rule:evenodd;stroke:none"
             id="path86"
             inkscape:connector-curvature="0" /></g><g
           id="g88"
           transform="translate(1624.1357,472.4736)"><path
             d="m 0,0 c -3.181,-3.979 -5.257,-7.026 -7.773,-9.652 -13.305,-13.888 -33.65,-9.509 -40.023,8.583 -2.171,6.163 -3.203,12.582 -3.226,19.105 -0.079,21.326 0.01,42.652 -0.136,63.978 -0.024,3.339 0.672,4.755 4.352,4.595 6.653,-0.288 13.334,-0.28 19.987,-0.003 3.647,0.154 4.424,-1.223 4.402,-4.589 -0.115,-17.827 -0.028,-35.654 0.032,-53.481 0.01,-2.821 0.15,-5.619 1.079,-8.376 1.242,-3.683 3.542,-6.097 7.41,-6.479 3.855,-0.38 6.788,1.54 8.664,4.807 2.285,3.98 3.148,8.406 3.171,12.951 0.085,16.661 0.243,33.323 0.033,49.98 -0.054,4.246 1.266,5.394 5.338,5.194 6.482,-0.319 12.993,-0.179 19.488,-0.041 2.672,0.058 3.874,-0.582 3.866,-3.575 -0.087,-31.655 -0.072,-63.31 -0.018,-94.967 0.003,-2.473 -0.633,-3.636 -3.36,-3.578 -6.661,0.144 -13.33,0.149 -19.99,-10e-4 -2.753,-0.061 -3.423,1.124 -3.33,3.587 C 0.101,-8.369 0,-4.769 0,0"
             style="fill:#fdfdfd;fill-opacity:1;fill-rule:evenodd;stroke:none"
             id="path90"
             inkscape:connector-curvature="0" /></g><g
           id="g92"
           transform="translate(1913.0586,559.1553)"><path
             d="m 0,0 c 5.466,0.862 7.048,-1.78 6.496,-6.823 -0.263,-2.402 0.174,-4.88 0.295,-7.323 -0.204,-0.614 -0.586,-1.227 -0.587,-1.841 -0.021,-13.598 -0.141,-27.199 0.104,-40.791 0.066,-3.74 0.224,-7.643 1.988,-11.172 3.017,-6.041 9.786,-6.981 14.303,-1.952 1.698,1.89 2.727,4.144 3.322,6.59 1.372,5.652 1.481,11.389 1.093,17.156 0.054,13.645 0.289,27.294 0.058,40.933 -0.072,4.275 1.289,5.366 5.34,5.157 6.309,-0.326 12.651,-0.237 18.968,-0.023 3.153,0.107 4.352,-0.689 4.339,-4.1 -0.127,-32.621 -0.091,-65.242 -0.103,-97.862 -7.497,-0.045 -15,0.073 -22.487,-0.207 -3.464,-0.129 -4.303,1.243 -4.102,4.362 0.213,3.307 0.048,6.639 0.048,10.434 -2.5,-1.124 -3.089,-3.339 -4.302,-4.938 -4.92,-6.486 -10.809,-11.281 -19.381,-11.73 -14.641,-0.766 -24.012,8.229 -26.398,25.298 -0.716,5.122 -1.047,10.25 -1.028,15.424 0.057,15.829 -0.064,31.659 0.067,47.487 0.042,5.099 -2.211,11.681 1.01,14.89 2.983,2.971 9.508,0.628 14.467,0.868 C -4.329,-0.058 -2.164,-0.052 0,0"
             style="fill:#fdfdfd;fill-opacity:1;fill-rule:evenodd;stroke:none"
             id="path94"
             inkscape:connector-curvature="0" /></g><g
           id="g96"
           transform="translate(1706.0713,504.5312)"><path
             d="m 0,0 c 0,7.957 -0.165,14.456 0.068,20.941 0.121,3.375 -0.762,5.136 -4.376,4.487 -4.905,-0.882 -6.296,1.169 -5.968,5.961 0.43,6.297 0.277,12.653 0.037,18.97 -0.127,3.338 1.054,4.636 4.256,4.1 4.675,-0.782 6.978,0.839 5.976,5.812 -1.9,9.42 1.85,15.641 10.299,19.947 4.699,2.394 8.754,6.034 13.181,8.992 1.176,0.786 2.304,2.56 3.799,1.85 1.549,-0.734 0.751,-2.679 0.761,-4.073 0.065,-9.157 0.184,-18.318 -0.04,-27.47 -0.09,-3.704 0.636,-5.249 4.851,-5.16 10.978,0.233 10.983,0.009 10.983,-11.199 0,-4.662 -0.123,-9.329 0.045,-13.984 0.1,-2.746 -0.73,-4.13 -3.638,-3.74 -0.327,0.044 -0.665,0.008 -0.998,0.003 -11.17,-0.152 -11.174,-0.152 -11.168,-11.139 0.006,-9.323 -0.171,-18.653 0.097,-27.97 0.268,-9.379 3.734,-11.803 11.33,-8.512 2.257,0.979 3.293,0.678 3.473,-2.059 0.425,-6.465 1.026,-12.92 1.707,-19.363 0.216,-2.049 -0.446,-3.176 -2.385,-3.654 -7.805,-1.922 -15.721,-3.195 -23.713,-1.866 C 7.789,-47.333 2.138,-39.705 0.857,-26.959 -0.095,-17.484 0.09,-8.016 0,0"
             style="fill:#fdfdfd;fill-opacity:1;fill-rule:evenodd;stroke:none"
             id="path98"
             inkscape:connector-curvature="0" /></g><g
           id="g100"
           transform="translate(1689.791,527.0254)"><path
             d="m 0,0 c 0,-21.488 -0.157,-42.979 0.12,-64.465 0.062,-4.767 -1.442,-5.936 -5.888,-5.681 -6.143,0.355 -12.326,0.226 -18.483,0.033 -3.095,-0.096 -4.408,0.613 -4.399,4.083 0.105,43.976 0.102,87.954 0.003,131.93 -0.007,3.378 1.137,4.245 4.331,4.141 6.656,-0.216 13.332,-0.263 19.984,0.014 3.644,0.151 4.42,-1.215 4.399,-4.589 C -0.064,43.645 -0.001,21.822 0,0"
             style="fill:#fdfdfd;fill-opacity:1;fill-rule:evenodd;stroke:none"
             id="path102"
             inkscape:connector-curvature="0" /></g><g
           id="g104"
           transform="translate(1834.1895,828.0596)"><path
             d="m 0,0 c 5.016,4.932 7.417,11.498 10.689,17.484 1.53,2.798 4.41,5.034 4.252,8.676 4.236,3.242 5.633,8.369 8.203,12.674 9.461,15.855 18.659,31.869 27.873,47.871 8.652,15.028 17.272,30.077 25.752,45.202 2.651,4.731 5.799,9.163 7.934,14.225 1.315,3.117 3.748,4.335 6.01,0.421 4.41,-7.635 8.742,-15.315 13.195,-22.924 7.821,-13.368 16.164,-26.453 23.453,-40.104 8.901,-16.667 18.782,-32.76 27.98,-49.249 3.34,-5.986 6.317,-12.311 10.729,-18.205 5.322,8.842 10.468,17.309 15.53,25.827 5.525,9.299 10.929,18.67 16.466,27.962 3.776,6.337 7.566,12.672 11.59,18.852 2.288,3.514 4.442,3.281 6.551,-0.358 7.573,-13.068 15.049,-26.193 22.701,-39.213 6.174,-10.505 12.55,-20.892 18.836,-31.331 0.973,-5.308 -3.223,-8.548 -5.39,-12.399 -13.456,-23.916 -27.303,-47.61 -41.02,-71.38 -0.495,-0.859 -0.881,-1.821 -2.01,-2.061 4.639,21.451 9.25,42.91 13.934,64.352 1.861,8.523 1.238,9.403 -7.238,9.418 -16.657,0.03 -33.319,-0.167 -49.965,0.254 -4.939,0.125 -6.41,-1.506 -7.243,-6.058 -5.914,-32.381 -12.092,-64.714 -18.467,-98.55 -3.751,13.462 -7.137,25.547 -10.487,37.64 -5.767,20.826 -11.572,41.641 -17.204,62.503 -0.88,3.259 -2.222,4.456 -5.771,4.415 C 88.729,5.735 70.57,5.716 52.417,5.953 48.51,6.004 46.975,4.767 45.979,1.087 37.685,-29.559 29.202,-60.154 20.767,-90.762 20.207,-92.791 19.562,-94.798 18.19,-96.713 12.127,-64.476 6.063,-32.238 0,0"
             style="fill:url(#linearGradient3566);fill-opacity:1;fill-rule:evenodd;stroke:none"
             id="path106"
             inkscape:connector-curvature="0" /></g><g
           id="g108"
           transform="translate(1878.0137,1168.6787)"><path
             d="m 0,0 c 1.278,-0.272 1.917,-1.285 2.633,-2.183 19.466,-24.373 38.909,-48.764 58.413,-73.108 2.173,-2.712 2.382,-5.164 0.521,-8.156 -6.391,-10.284 -12.668,-20.641 -18.902,-31.022 -1.241,-2.067 -1.977,-2.312 -3.317,-0.076 -7.5,12.505 -15.153,24.919 -22.6,37.455 -1.713,2.884 -2.424,4.637 -4.948,0.374 -11.333,-19.131 -22.978,-38.077 -34.477,-57.11 -1.032,-1.708 -1.798,-4.173 -3.802,-4.274 -1.891,-0.095 -2.378,2.451 -3.308,3.987 -10.138,16.749 -20.204,33.543 -30.499,50.195 -2.35,3.8 -2.846,6.27 0.443,10.294 19.325,23.643 38.189,47.661 57.218,71.546 C -1.918,-1.191 -1.317,-0.118 0,0"
             style="fill:url(#linearGradient3493);fill-opacity:1;fill-rule:evenodd;stroke:none"
             id="path110"
             inkscape:connector-curvature="0" /></g><g
           id="g144"
           transform="translate(2205.0313,508.0879)"><path
             d="m 0,0 c -0.382,7.896 -0.645,15.561 -5.475,22.11 -4.324,5.863 -10.577,6.33 -15.765,1.289 -4.657,-4.525 -5.538,-10.446 -6.233,-16.409 -1.109,-9.539 -0.963,-19.076 3.879,-27.651 5.039,-8.921 14.772,-8.459 19.617,0.541 C -0.537,-13.733 -0.466,-6.728 0,0 m 28.039,3.084 c -0.023,-17.328 -3.016,-30.906 -12.162,-42.603 -14.41,-18.429 -47.548,-19.12 -62.389,3.505 -13.196,20.121 -12.814,54.501 1.622,73.706 C -27.908,60.285 6.815,57.753 20.422,32.924 26,22.744 28.105,11.756 28.039,3.084"
             style="fill:#fdfefd;fill-opacity:1;fill-rule:evenodd;stroke:none"
             id="path146"
             inkscape:connector-curvature="0" /></g><g
           id="g148"
           transform="translate(2308.0547,504.4326)"><path
             d="m 0,0 c 0,8.019 -0.154,14.517 0.063,21.001 0.113,3.341 -0.733,5.176 -4.374,4.536 -5.002,-0.88 -6.218,1.379 -5.913,6.064 0.4,6.132 0.268,12.319 0.011,18.467 -0.143,3.452 0.894,5.115 4.439,4.484 5.088,-0.906 6.639,1.535 5.753,6.086 -1.8,9.246 2.006,15.241 10.135,19.541 5.109,2.701 9.699,6.416 14.396,9.848 2.804,2.051 3.59,1.378 3.561,-1.881 -0.085,-9.654 0.149,-19.314 -0.117,-28.961 -0.106,-3.848 1.192,-4.739 4.842,-4.703 11.071,0.11 11.073,-0.043 11.073,-11.186 0,-4.66 -0.116,-9.325 0.042,-13.982 0.094,-2.735 -0.751,-4.133 -3.653,-3.769 -0.327,0.042 -0.664,0.009 -0.998,0.004 C 28.042,25.376 28.041,25.376 28.043,13.918 28.044,5.262 27.979,-3.396 28.098,-12.05 c 0.034,-2.469 0.277,-5.033 1.007,-7.372 1.372,-4.386 4.785,-4.809 8.437,-3.201 4.514,1.987 5.572,0.514 5.59,-4.058 0.02,-5.449 0.839,-10.907 1.519,-16.335 0.273,-2.174 -0.138,-3.62 -2.374,-4.141 -8.125,-1.899 -16.318,-3.385 -24.645,-1.614 C 7.354,-46.586 2.037,-39.08 0.859,-26.874 -0.055,-17.402 0.103,-7.944 0,0"
             style="fill:#fdfefd;fill-opacity:1;fill-rule:evenodd;stroke:none"
             id="path150"
             inkscape:connector-curvature="0" /></g><g
           id="g152"
           transform="translate(2265.9941,543.3184)"><path
             d="m 0,0 c 2.303,4.335 3.938,7.942 6.035,11.257 5.662,8.94 16.448,7.539 23.729,2.228 1.508,-1.099 1.212,-2.417 0.713,-3.993 -2.207,-6.971 -4.376,-13.958 -6.347,-20.998 -0.882,-3.151 -1.923,-4.389 -5.509,-2.94 -5.65,2.282 -9.498,0.522 -12.195,-5.03 C 2.925,-26.684 2.419,-34.587 2.174,-42.349 1.76,-55.499 1.916,-68.672 2.066,-81.832 c 0.039,-3.398 -0.806,-4.725 -4.421,-4.579 -6.655,0.267 -13.329,0.169 -19.991,0.032 -2.734,-0.057 -3.821,0.766 -3.813,3.664 0.078,31.656 0.07,63.314 0.012,94.971 -0.005,2.6 0.899,3.515 3.489,3.464 6.496,-0.128 12.996,-0.109 19.492,-0.009 2.363,0.036 3.274,-0.833 3.199,-3.199 C -0.088,8.686 0,4.853 0,0"
             style="fill:#fefefe;fill-opacity:1;fill-rule:evenodd;stroke:none"
             id="path154"
             inkscape:connector-curvature="0" /></g><g
           id="g156"
           transform="translate(1940.0723,512.999)"><path
             d="m 0,0 c 0.389,-5.767 0.279,-11.504 -1.093,-17.155 -0.594,-2.447 -1.624,-4.7 -3.322,-6.591 -4.517,-5.028 -11.286,-4.089 -14.303,1.952 -1.763,3.529 -1.922,7.433 -1.988,11.172 -0.244,13.593 -0.125,27.193 -0.104,40.791 10e-4,0.614 0.383,1.227 0.587,1.841 0.713,-0.324 1.428,-0.65 2.141,-0.974 C -12.825,21.514 -7.56,11.996 -2.323,2.461 -1.751,1.418 -1.193,0.427 0,0"
             style="fill:#88a398;fill-opacity:1;fill-rule:evenodd;stroke:none"
             id="path158"
             inkscape:connector-curvature="0" /></g><g
           id="g160"
           transform="translate(1429.4316,558.7959)"><path
             d="m 0,0 c 2.091,-3.823 2.246,-7.53 3.041,-11.027 2.58,-11.347 4.962,-22.739 7.555,-34.082 0.616,-2.697 0.348,-3.906 -2.857,-3.75 -4.987,0.243 -9.998,0.165 -14.994,0.028 -2.775,-0.076 -3.412,0.831 -2.794,3.543 C -6.66,-30.42 -3.426,-15.518 0,0"
             style="fill:#88a398;fill-opacity:1;fill-rule:evenodd;stroke:none"
             id="path162"
             inkscape:connector-curvature="0" /></g><g
           id="g164"
           transform="translate(1535.0684,507.6719)"><path
             d="m 0,0 c 0.171,-5.018 -0.182,-9.97 -1.951,-14.729 -2.076,-5.583 -5.948,-9.046 -10.24,-8.864 -5.572,0.237 -8.249,4.189 -9.663,8.77 -3.162,10.257 -3.071,20.685 0.139,30.919 1.331,4.246 3.955,8.012 9.044,8.097 4.857,0.082 7.847,-2.987 9.912,-7.156 C -0.079,11.627 0.172,5.854 0,0"
             style="fill:#88a398;fill-opacity:1;fill-rule:evenodd;stroke:none"
             id="path166"
             inkscape:connector-curvature="0" /></g><g
           id="g268"
           transform="translate(2205.0313,508.0879)"><path
             d="m 0,0 c -0.466,-6.728 -0.537,-13.733 -3.977,-20.12 -4.845,-9 -14.578,-9.462 -19.617,-0.541 -4.842,8.575 -4.988,18.112 -3.879,27.651 0.695,5.963 1.576,11.884 6.233,16.409 5.188,5.041 11.441,4.574 15.765,-1.289 C -0.645,15.561 -0.382,7.896 0,0"
             style="fill:#a1bdad;fill-opacity:1;fill-rule:evenodd;stroke:none"
             id="path270"
             inkscape:connector-curvature="0" /></g></g></g></g></svg>